<svg width="1156" height="272" viewBox="0 0 1156 272" fill="none" xmlns="http://www.w3.org/2000/svg">
<path fill-rule="evenodd" clip-rule="evenodd" d="M907.359 1.11693C887.512 6.51104 880.34 22.8989 892.488 35.0965C904.811 47.4694 930.098 47.8926 942.945 35.9406C947.586 31.6226 949.398 27.7792 949.398 22.2445C949.398 9.41894 935.765 -0.139028 917.673 0.00153026C914.157 0.0287351 909.515 0.530512 907.359 1.11693ZM781.845 37.4898C758.213 38.9861 739.503 46.8792 724.873 61.523C713.245 73.1621 706.58 86.0172 703.174 103.375C701.263 113.116 702 132.383 704.653 142.021C711.458 166.747 729.207 186.213 752.92 194.958C765.37 199.55 771.844 200.537 788.958 200.451C802.269 200.384 805.454 200.126 812.943 198.505C839.428 192.777 858.537 178.763 868.822 157.526C884.101 125.973 878.453 88.5654 854.739 64.2563C839.347 48.4798 820.174 39.9344 795.322 37.7762C790.381 37.347 786.169 37.0538 785.963 37.1248C785.757 37.1951 783.904 37.3598 781.845 37.4898ZM57.1239 40.4098C28.3691 44.1429 9.61461 52.7744 3.15371 65.2493C1.51321 68.4164 1.1598 70.1001 1.15681 74.7649C1.15231 81.4649 2.25671 83.9806 7.43502 89.0709C12.075 93.6315 18.1855 96.5349 32.0582 100.77C53.8451 107.421 67.2311 115.41 76.1165 127.064C83.3493 136.55 87.7392 149.197 88.783 163.556L89.3221 170.966L81.5366 170.536C59.9032 169.34 35.9442 156.055 11.3712 131.631C6.24901 126.539 1.59482 122.373 1.02877 122.373C0.169216 122.373 0 128.725 0 160.914V199.454H6.57396C30.4641 199.454 57.9842 191.898 73.5715 181.058C76.3553 179.123 78.8823 177.541 79.1871 177.544C79.4918 177.547 80.561 178.764 81.5628 180.249C84.3422 184.366 92.3095 191.399 97.1412 193.998C109.466 200.628 124.762 201.233 136.713 195.564C141.669 193.213 148.365 186.664 151.054 181.538C154.431 175.101 155.765 169.806 156.255 160.9C157.501 138.287 147.13 120.412 126.715 109.991C113.838 103.418 99.0265 100.619 72.2537 99.7012C51.2949 98.9818 43.3889 98.1913 34.1734 95.8918C22.8471 93.0655 15.7124 87.7923 16.8609 83.0964C18.4573 76.571 29.469 71.712 46.0005 70.2391C56.4148 69.3111 80.1589 70.4484 92.4278 72.4631C113.81 75.9748 131.652 83.5997 146.325 95.4965C154.872 102.426 154.241 104.502 154.241 69.4751V39.2475L109.504 39.3322C77.3968 39.3934 62.6084 39.6979 57.1239 40.4098ZM240.826 40.4219C213.465 43.9698 190.711 54.2578 176.962 69.2975C164.26 83.1916 158.36 101.233 160.485 119.682C161.756 130.709 163.822 138.154 168.049 146.933C182.949 177.875 219.624 199.448 257.332 199.453C297.706 199.457 326.942 184.626 331.329 161.914C333.406 151.163 328.157 136.968 318.089 126.104L314.631 122.373H303.828H293.024L298.859 127.053C314.615 139.69 325.293 153.992 325.311 162.482C325.323 168.199 321.439 170.745 312.728 170.728C296.781 170.696 277.019 162.53 251.567 145.454C232.128 132.413 216.299 119.821 203.729 107.399L196.323 100.081L260.82 99.8871L325.318 99.6944V69.4706V39.2475L286.945 39.3322C259.865 39.3926 246.292 39.713 240.826 40.4219ZM415.35 40.4302C378.348 46.1198 352.296 65.247 342.679 93.7834C335.993 113.623 336.783 141.665 344.57 160.979C349.254 172.598 357.72 183.927 366.026 189.695C375.413 196.213 386.768 200.016 398.877 200.698C419.987 201.886 436.305 191.695 452.666 167.106C457.499 159.841 466.936 141.152 471.532 129.742L474.5 122.374H482.724L490.947 122.373L487.026 125.835C478.94 132.974 472.005 144.671 469.362 155.624C467.011 165.372 466.651 174.313 466.645 223.069L466.639 272H496.588H526.538V155.624V39.2475L474.313 39.3208C434.151 39.3767 420.532 39.6329 415.35 40.4302ZM540.289 96.083C540.289 158.028 540.717 166.364 544.497 178.185C549.401 193.519 559.395 200.079 576.603 199.257C588.792 198.675 597.663 194.394 607.725 184.239C614.273 177.63 619.819 169.108 626.331 155.649C631.411 145.15 634.922 135.759 637.078 126.908L638.09 122.751L645.065 122.533L652.039 122.314L649.331 125.933C642.341 135.277 636.182 148.1 633.012 159.909C631.69 164.837 631.367 168.634 631.075 182.64L630.725 199.454H660.755H690.787V119.351V39.2475H660.837H630.887V82.2727C630.887 130.044 630.847 130.536 625.919 143.112C622.498 151.841 617.255 161.984 613.732 166.689L610.983 170.36L580.503 170.557L550.023 170.754V165.834C550.023 162.396 550.305 160.917 550.959 160.923C551.474 160.929 554.085 161.655 556.762 162.537C560.372 163.726 563.658 164.159 569.49 164.213C576.474 164.278 577.819 164.066 581.535 162.32C586.968 159.767 590.871 155.754 593.558 149.96C597.749 140.92 597.943 138.122 597.943 86.4116V39.2475H569.116H540.289V96.083ZM945.735 40.7158C945.481 41.5237 943.766 44.1595 941.923 46.5724C932.293 59.1849 914.698 67.8126 895.743 69.2159L889.191 69.7011V134.578V199.454H918.767H948.342V119.351C948.342 50.3259 948.194 39.2475 947.269 39.2475C946.679 39.2475 945.989 39.908 945.735 40.7158ZM979.601 69.0935C979.601 94.6585 979.76 99.0558 980.698 99.4193C981.301 99.6528 983.815 98.6062 986.283 97.0926C993.596 92.6083 1010.02 84.9804 1019.66 81.5918C1056.99 68.4663 1099.99 65.977 1117.1 75.9499C1126.6 81.483 1126.5 90.5248 1116.89 95.22C1109.17 98.9901 1107.43 99.145 1066.46 99.6982C1024.22 100.269 1020.43 100.617 1006.93 105.163C989.874 110.909 978.235 119.82 971.904 131.98C968.129 139.231 966.872 144.684 966.872 153.814C966.872 166.965 970.838 176.312 980.198 185.225C986.569 191.291 991.524 194.205 1000.5 197.165C1010.43 200.439 1021.57 201.38 1037.73 200.308C1044.67 199.846 1052.38 198.926 1054.85 198.263C1064.57 195.653 1073.06 189.025 1077.17 180.852C1083.93 167.375 1080.5 148.821 1067.5 128.608L1063.49 122.373H1070.95C1078.07 122.373 1078.42 122.451 1078.8 124.074C1079.02 125.009 1081.02 133.425 1083.26 142.777C1091.62 177.777 1093.32 184.903 1094.99 192.086L1096.7 199.454H1126.13C1142.31 199.454 1155.56 199.293 1155.56 199.096C1155.56 198.79 1140.51 133.171 1128.6 81.5662C1126.19 71.1119 1124.03 63.6268 1122.55 60.5731C1119.38 54.0281 1114.2 49.0488 1106.7 45.3165C1095.22 39.605 1096.79 39.7327 1034.82 39.447L979.601 39.1924V69.0935ZM320.826 43.6494C320.826 44.9333 317.225 54.8948 315.583 58.1541C309.39 70.4447 297.752 82.0256 286.585 87.0117C274.55 92.3839 266.004 93.2476 224.662 93.265L190.269 93.2793L187.07 88.4618C183.67 83.3435 182.336 78.2562 183.516 74.9055C183.885 73.8559 185.51 72.3157 187.175 71.4354C190.11 69.8847 191.219 69.8454 241.834 69.4751L293.497 69.0973L297.339 67.3418C304.411 64.112 307.763 58.575 308.585 48.7654L309.066 43.026H314.946C318.18 43.026 320.826 43.3063 320.826 43.6494ZM470.224 46.8006C480.837 51.427 484.927 63.255 482.015 80.8936C477.638 107.399 458.689 143.141 439.16 161.73C429.901 170.542 423.047 172.615 415.35 168.931C394.678 159.039 389.552 111.503 405.662 79.1049C415.291 59.7381 429.927 48.3075 449.026 45.2371C455.81 44.1467 465.83 44.885 470.224 46.8006ZM770.325 71.7195C804.285 88.65 842.482 123.909 854.166 149.109C861.006 163.862 856.956 171.476 842.262 171.489C813.532 171.514 767.852 148.736 742.31 121.646C719.37 97.3162 715.489 77.267 730.839 62.3837C738.188 55.2583 747.081 50.4574 758.259 47.5805L763.126 46.3283L763.339 57.335L763.552 68.3416L770.325 71.7195ZM1027.46 108.884C1037.52 112.024 1047.32 118.224 1056.79 127.435C1068.17 138.51 1074.9 150.636 1075.01 160.297C1075.06 164.89 1074.87 165.557 1072.88 167.655C1071.62 168.975 1069.54 170.181 1068.01 170.471C1058.58 172.259 1039.79 163.153 1026.49 150.344C1015.77 140.018 1008.69 127.729 1008.18 118.521C1007.98 114.939 1008.24 112.864 1009.12 111.153C1009.79 109.843 1010.41 108.766 1010.51 108.76C1010.6 108.754 1012 108.284 1013.61 107.716C1017.07 106.502 1020.85 106.821 1027.46 108.884Z" fill="#FFFCE3"/>
</svg>
