<svg width="234" height="56" viewBox="0 0 234 56" fill="none" xmlns="http://www.w3.org/2000/svg">
<path fill-rule="evenodd" clip-rule="evenodd" d="M183.67 0.226091C179.652 1.31798 178.2 4.63525 180.659 7.10431C183.154 9.60886 188.272 9.69453 190.873 7.27518C191.812 6.40112 192.179 5.62312 192.179 4.50278C192.179 1.9066 189.419 -0.0281424 185.757 0.000309759C185.046 0.00581662 184.106 0.107387 183.67 0.226091ZM158.263 7.58876C153.479 7.89164 149.692 9.4894 146.73 12.4536C144.377 14.8096 143.027 17.4118 142.338 20.9255C141.951 22.8972 142.1 26.7973 142.637 28.7483C144.015 33.7532 147.608 37.6935 152.408 39.4638C154.928 40.3933 156.238 40.5931 159.703 40.5756C162.397 40.5622 163.042 40.5098 164.558 40.1819C169.919 39.0224 173.787 36.1856 175.869 31.8867C178.962 25.4997 177.818 17.9276 173.018 13.0069C169.902 9.81338 166.021 8.08362 160.991 7.64674C159.991 7.55985 159.138 7.5005 159.096 7.51488C159.055 7.52911 158.68 7.56245 158.263 7.58876ZM11.5631 8.17983C5.74254 8.9355 1.94621 10.6827 0.63838 13.2079C0.306307 13.849 0.23477 14.1898 0.234163 15.1341C0.233254 16.4903 0.456808 16.9995 1.50501 18.0299C2.44424 18.9531 3.68114 19.5408 6.48929 20.398C10.8994 21.7443 13.6091 23.3615 15.4077 25.7206C16.8718 27.6408 17.7604 30.2008 17.9716 33.1074L18.0808 34.6073L16.5048 34.5202C12.1257 34.2782 7.27589 31.589 2.30178 26.6449C1.26494 25.6142 0.322828 24.7711 0.208247 24.7711C0.0342531 24.7711 0 26.0568 0 32.5725V40.3739H1.33072C6.16661 40.3739 11.7373 38.8443 14.8925 36.6502C15.456 36.2584 15.9675 35.9382 16.0292 35.9388C16.0909 35.9395 16.3073 36.1857 16.5101 36.4863C17.0727 37.3198 18.6855 38.7434 19.6635 39.2694C22.1584 40.6116 25.2547 40.7341 27.6737 39.5865C28.6769 39.1105 30.0324 37.7849 30.5766 36.7473C31.2602 35.4443 31.5302 34.3724 31.6295 32.5697C31.8817 27.9923 29.7823 24.3741 25.6499 22.2647C23.0434 20.9342 20.0452 20.3676 14.6258 20.1817C10.3832 20.0361 8.78288 19.8761 6.91745 19.4106C4.62477 18.8385 3.18053 17.7711 3.41303 16.8206C3.73616 15.4997 5.96518 14.5161 9.31153 14.218C11.4196 14.0301 16.2259 14.2603 18.7094 14.6681C23.0378 15.379 26.6493 16.9224 29.6195 19.3306C31.3496 20.7333 31.2218 21.1535 31.2218 14.0633V7.94457L22.166 7.9617C15.6668 7.97409 12.6733 8.03574 11.5631 8.17983ZM48.7485 8.18228C43.2099 8.90047 38.6041 10.983 35.821 14.0274C33.2499 16.8398 32.0556 20.4918 32.4857 24.2264C32.7429 26.4585 33.1612 27.9655 34.0169 29.7426C37.033 36.0058 44.4568 40.3728 52.0897 40.3737C60.2624 40.3745 66.1803 37.3725 67.0683 32.775C67.4887 30.5987 66.4262 27.7254 64.3882 25.5263L63.6883 24.7711H61.5015H59.3146L60.4956 25.7183C63.6851 28.2764 65.8465 31.1714 65.8502 32.89C65.8526 34.0472 65.0663 34.5626 63.3032 34.5591C60.075 34.5526 56.0748 32.8997 50.9228 29.443C46.9879 26.8033 43.7838 24.2544 41.2392 21.74L39.7401 20.2585L52.7958 20.2194L65.8517 20.1804V14.0624V7.94457L58.0841 7.9617C52.6024 7.97394 49.855 8.0388 48.7485 8.18228ZM84.076 8.18396C76.5861 9.33566 71.3125 13.2074 69.3658 18.9838C68.0125 22.9999 68.1722 28.6762 69.7486 32.5858C70.6968 34.9377 72.4104 37.2308 74.0918 38.3984C75.9919 39.7178 78.2904 40.4877 80.7416 40.6256C85.0147 40.8661 88.3177 38.8033 91.6295 33.8259C92.608 32.3554 94.5182 28.5724 95.4486 26.2627L96.0494 24.7712H97.714L99.3786 24.7711L98.5849 25.4718C96.9482 26.9169 95.5442 29.2846 95.0094 31.5017C94.5335 33.475 94.4604 35.2849 94.4592 45.1541L94.458 55.0588H100.52H106.583V31.5017V7.94457L96.0115 7.95941C87.8819 7.97073 85.1249 8.02258 84.076 8.18396ZM109.367 19.4493C109.367 31.9883 109.453 33.6757 110.218 36.0686C111.211 39.1726 113.234 40.5004 116.717 40.3341C119.185 40.2161 120.98 39.3497 123.017 37.294C124.342 35.9563 125.465 34.2311 126.783 31.5069C127.812 29.3816 128.522 27.4806 128.959 25.6889L129.164 24.8476L130.575 24.8034L131.987 24.7592L131.439 25.4917C130.024 27.383 128.777 29.9787 128.136 32.369C127.868 33.3667 127.803 34.1352 127.743 36.9703L127.673 40.3739H133.752H139.831V24.1592V7.94457H133.768H127.706V16.6538C127.706 26.3237 127.697 26.4235 126.7 28.969C126.007 30.7359 124.946 32.7892 124.233 33.7415L123.677 34.4846L117.507 34.5245L111.337 34.5644V33.5684C111.337 32.8726 111.394 32.5731 111.526 32.5745C111.631 32.5755 112.159 32.7225 112.701 32.901C113.432 33.1418 114.097 33.2295 115.277 33.2403C116.691 33.2535 116.963 33.2107 117.715 32.8571C118.815 32.3404 119.605 31.5282 120.149 30.3552C120.998 28.5254 121.037 27.9589 121.037 17.4916V7.94457H115.202H109.367V19.4493ZM191.438 8.24179C191.386 8.40531 191.039 8.93886 190.666 9.42729C188.717 11.9803 185.155 13.7268 181.318 14.0108L179.992 14.109V27.2415V40.3739H185.979H191.965V24.1592C191.965 10.1871 191.935 7.94457 191.748 7.94457C191.629 7.94457 191.489 8.07826 191.438 8.24179ZM198.293 13.9861C198.293 19.161 198.325 20.0511 198.515 20.1247C198.637 20.1719 199.146 19.9601 199.646 19.6537C201.126 18.746 204.451 17.2019 206.402 16.516C213.957 13.8591 222.662 13.3552 226.127 15.3739C228.049 16.494 228.029 18.3242 226.083 19.2746C224.521 20.0378 224.169 20.0691 215.874 20.1811C207.324 20.2968 206.557 20.3671 203.825 21.2874C200.372 22.4504 198.016 24.2542 196.735 26.7158C195.971 28.1835 195.716 29.2872 195.716 31.1353C195.716 33.7974 196.519 35.6895 198.414 37.4936C199.704 38.7215 200.706 39.3113 202.523 39.9105C204.533 40.5733 206.789 40.7638 210.059 40.5467C211.465 40.4533 213.025 40.2671 213.525 40.1328C215.492 39.6044 217.212 38.2629 218.042 36.6084C219.412 33.8804 218.717 30.1247 216.086 26.0331L215.275 24.7711H216.784C218.225 24.7711 218.297 24.7868 218.373 25.1153C218.417 25.3046 218.823 27.0082 219.276 28.9012C220.968 35.986 221.311 37.4285 221.65 38.8824L221.997 40.3739H227.953C231.23 40.3739 233.91 40.3413 233.91 40.3015C233.91 40.2394 230.864 26.9569 228.454 16.5108C227.965 14.3946 227.529 12.8795 227.229 12.2613C226.587 10.9365 225.539 9.92857 224.021 9.17306C221.697 8.01692 222.015 8.04277 209.471 7.98495L198.293 7.9334V13.9861ZM64.9423 8.83561C64.9423 9.0955 64.2134 11.1119 63.8809 11.7717C62.6273 14.2596 60.2716 16.6038 58.0111 17.6131C55.575 18.7005 53.8451 18.8754 45.4766 18.8789L38.5147 18.8818L37.8671 17.9066C37.1788 16.8706 36.9089 15.8408 37.1478 15.1625C37.2225 14.9501 37.5514 14.6383 37.8884 14.4601C38.4824 14.1462 38.7069 14.1383 48.9525 14.0633L59.4103 13.9868L60.1881 13.6315C61.6196 12.9777 62.2981 11.8569 62.4644 9.8712L62.5617 8.70941H63.7521C64.4067 8.70941 64.9423 8.76616 64.9423 8.83561ZM95.1837 9.47349C97.3321 10.41 98.16 12.8042 97.5705 16.3747C96.6844 21.7399 92.8488 28.9748 88.8956 32.7377C87.0216 34.5214 85.6342 34.941 84.076 34.1955C79.8916 32.1931 78.8539 22.5706 82.1149 16.0126C84.0641 12.0923 87.0267 9.77851 90.8928 9.157C92.2661 8.93626 94.2943 9.08571 95.1837 9.47349ZM155.931 14.5176C162.805 17.9447 170.537 25.0819 172.902 30.183C174.287 33.1692 173.467 34.7105 170.493 34.7131C164.677 34.7183 155.43 30.1074 150.26 24.6238C145.616 19.699 144.831 15.6406 147.938 12.6278C149.426 11.1855 151.226 10.2137 153.489 9.63135L154.474 9.37788L154.517 11.6059L154.56 13.8338L155.931 14.5176ZM207.98 22.0404C210.017 22.6762 212.001 23.9311 213.918 25.7957C216.222 28.0376 217.583 30.4921 217.605 32.4477C217.616 33.3774 217.577 33.5123 217.174 33.9371C216.92 34.2043 216.498 34.4483 216.189 34.5071C214.28 34.869 210.477 33.0259 207.784 30.4329C205.613 28.3427 204.182 25.8552 204.077 23.9913C204.037 23.2662 204.09 22.8461 204.268 22.4998C204.404 22.2346 204.53 22.0166 204.549 22.0154C204.567 22.0141 204.85 21.919 205.178 21.8041C205.877 21.5584 206.642 21.623 207.98 22.0404Z" fill="#161616"/>
</svg>
