<svg width="227" height="226" viewBox="0 0 227 226" fill="none" xmlns="http://www.w3.org/2000/svg">
<g filter="url(#filter0_d_1_39977)">
<path d="M28.6419 91.727L30.5521 85.5312L32.9813 86.2779L30.1445 95.4794L11.793 89.8386L12.7196 86.833L28.6419 91.727Z" fill="#FFFCE3"/>
<path d="M23.726 67.2511L28.5753 70.1191L31.9544 64.4226L34.1651 65.7301L30.786 71.4265L35.8492 74.421L39.6507 68.0125L41.8614 69.3199L36.4547 78.4342L19.9102 68.6495L25.3168 59.5352L27.5275 60.8426L23.726 67.2511Z" fill="#FFFCE3"/>
<path d="M53.4765 50.5814L47.6395 56.1017L49.3344 59.8943L46.9475 62.1517L38.7188 43.4884L41.3665 40.9844L59.5843 50.2005L57.1773 52.4769L53.4765 50.5814ZM51.0677 49.3258L42.6645 45.0004L46.5144 53.6321L51.0677 49.3258Z" fill="#FFFCE3"/>
<path d="M75.9102 40.8922L68.5411 35.9775L66.3869 37.0422L69.7944 43.9152L66.9717 45.3104L58.4531 28.1281L64.3955 25.1908C65.716 24.5381 66.9447 24.2181 68.0813 24.2308C69.2346 24.2354 70.226 24.5149 71.0557 25.0692C71.9019 25.6155 72.562 26.3665 73.0359 27.3225C73.5916 28.4433 73.7681 29.6283 73.5655 30.8776C73.3712 32.1024 72.6789 33.2141 71.4888 34.2127L79.2775 39.2279L75.9102 40.8922ZM65.2716 34.7925L68.3913 33.2504C69.4478 32.7282 70.1093 32.0729 70.3761 31.2844C70.6594 30.4878 70.5803 29.6444 70.139 28.7544C69.6978 27.8643 69.0904 27.3027 68.3171 27.0692C67.5356 26.8195 66.6084 26.9597 65.5354 27.4901L62.4157 29.0321L65.2716 34.7925Z" fill="#FFFCE3"/>
<path d="M104.548 33.4764L101.436 33.9591L89.8708 21.264L92.0718 35.4115L88.9595 35.8942L86.0078 16.9218L89.1201 16.4391L100.681 29.107L98.4841 14.9866L101.596 14.5039L104.548 33.4764Z" fill="#FFFCE3"/>
<path d="M154.365 24.3359L147.606 42.2808L144.657 41.1736L149.287 28.8832L139.176 39.1146L137.132 38.3474L136.254 23.9883L131.624 36.2786L128.676 35.1714L135.437 17.2266L138.617 18.4212L139.626 34.8629L151.211 23.151L154.365 24.3359Z" fill="#FFFCE3"/>
<path d="M163.196 53.7169C161.846 52.5488 160.872 51.1582 160.273 49.5453C159.7 47.9304 159.569 46.271 159.877 44.5671C160.212 42.8614 160.994 41.2996 162.224 39.8818C163.455 38.4641 164.885 37.4754 166.516 36.9155C168.161 36.3677 169.82 36.2687 171.489 36.6187C173.186 36.9669 174.709 37.725 176.059 38.8932C177.423 40.0733 178.392 41.4709 178.965 43.0857C179.563 44.6986 179.701 46.3511 179.379 48.043C179.057 49.7348 178.28 51.2896 177.049 52.7073C175.82 54.1251 174.383 55.1209 172.739 55.6946C171.108 56.2545 169.444 56.3603 167.748 56.0122C166.077 55.6622 164.56 54.8971 163.196 53.7169ZM164.987 51.6528C165.948 52.4838 166.991 53.0089 168.116 53.2284C169.254 53.4339 170.381 53.3142 171.499 52.8694C172.642 52.4226 173.677 51.6641 174.606 50.5939C175.535 49.5235 176.134 48.3987 176.402 47.2192C176.683 46.0518 176.636 44.9274 176.258 43.8463C175.879 42.765 175.211 41.8091 174.251 40.978C173.289 40.1471 172.246 39.6219 171.12 39.4025C169.996 39.1831 168.867 39.2897 167.736 39.7226C166.618 40.1676 165.596 40.9251 164.667 41.9954C163.738 43.0656 163.127 44.1915 162.833 45.3727C162.565 46.5523 162.615 47.6895 162.979 48.7847C163.358 49.8658 164.027 50.8219 164.987 51.6528Z" fill="#FFFCE3"/>
<path d="M181.318 75.5339L185.599 67.7865L184.354 65.7334L177.784 69.7049L176.152 67.0146L192.579 57.0859L196.013 62.7497C196.775 64.0082 197.199 65.2036 197.283 66.3356C197.375 67.4833 197.181 68.4933 196.697 69.3657C196.224 70.2539 195.53 70.9741 194.616 71.5265C193.545 72.1741 192.377 72.45 191.113 72.354C189.875 72.2642 188.707 71.6695 187.61 70.57L183.264 78.7433L181.318 75.5339ZM186.505 64.4334L188.307 67.4069C188.919 68.4138 189.628 69.0165 190.438 69.2153C191.257 69.4296 192.091 69.2797 192.942 68.7654C193.793 68.2511 194.303 67.5994 194.47 66.8102C194.653 66.0116 194.435 65.1009 193.815 64.0782L192.012 61.1048L186.505 64.4334Z" fill="#FFFCE3"/>
<path d="M204.075 86.7209L198.648 88.241L200.439 94.6156L197.965 95.3086L196.174 88.934L190.508 90.5212L192.524 97.6926L190.05 98.3856L187.184 88.1863L205.698 83L208.564 93.1993L206.09 93.8923L204.075 86.7209Z" fill="#FFFCE3"/>
<path d="M191.424 137.233L189.382 143.386L186.969 142.588L190.002 133.449L208.228 139.481L207.237 142.466L191.424 137.233Z" fill="#FFFCE3"/>
<path d="M195.814 161.804L191.027 158.833L187.526 164.456L185.345 163.102L188.844 157.479L183.847 154.377L179.909 160.702L177.727 159.348L183.328 150.352L199.659 160.488L194.058 169.485L191.876 168.13L195.814 161.804Z" fill="#FFFCE3"/>
<path d="M165.717 177.839L171.67 172.445L170.058 168.617L172.492 166.41L180.319 185.246L177.618 187.693L159.602 178.088L162.057 175.864L165.717 177.839ZM168.098 179.146L176.406 183.649L172.742 174.938L168.098 179.146Z" fill="#FFFCE3"/>
<path d="M143.074 187.042L150.335 192.113L152.512 191.095L149.253 184.151L152.104 182.816L160.252 200.176L154.249 202.987C152.915 203.611 151.68 203.904 150.543 203.867C149.39 203.838 148.405 203.537 147.587 202.965C146.753 202.401 146.109 201.636 145.656 200.67C145.125 199.538 144.973 198.35 145.203 197.105C145.423 195.884 146.139 194.788 147.351 193.814L139.672 188.634L143.074 187.042ZM153.579 193.368L150.427 194.843C149.359 195.343 148.684 195.983 148.4 196.766C148.1 197.557 148.161 198.401 148.583 199.3C149.005 200.2 149.601 200.774 150.368 201.024C151.144 201.291 152.074 201.17 153.159 200.664L156.311 199.188L153.579 193.368Z" fill="#FFFCE3"/>
<path d="M114.285 193.842L117.407 193.426L128.697 206.366L126.801 192.174L129.922 191.758L132.466 210.79L129.344 211.206L118.058 198.293L119.951 212.458L116.829 212.874L114.285 193.842Z" fill="#FFFCE3"/>
<path d="M64.2852 201.918L71.4288 184.121L74.3523 185.291L69.4596 197.48L79.789 187.467L81.8149 188.277L82.3845 202.652L87.2772 190.464L90.2007 191.634L83.0571 209.43L79.9028 208.167L79.2473 191.708L67.4138 203.169L64.2852 201.918Z" fill="#FFFCE3"/>
<path d="M56.088 172.354C57.4129 173.552 58.3574 174.962 58.9214 176.587C59.4593 178.215 59.5557 179.876 59.2104 181.574C58.8392 183.271 58.0235 184.816 56.7631 186.207C55.5028 187.599 54.0512 188.556 52.4083 189.082C50.7518 189.593 49.0923 189.658 47.4299 189.271C45.7415 188.887 44.2348 188.097 42.91 186.9C41.5714 185.691 40.6331 184.272 40.0952 182.646C39.5311 181.021 39.4286 179.366 39.7874 177.682C40.1464 175.997 40.956 174.459 42.2164 173.068C43.4767 171.676 44.9345 170.712 46.5897 170.174C48.2325 169.648 49.8981 169.578 51.5865 169.962C53.2489 170.348 54.7495 171.146 56.088 172.354ZM54.2531 174.379C53.3106 173.529 52.2791 172.982 51.1585 172.738C50.0255 172.508 48.8958 172.604 47.7694 173.024C46.6168 173.446 45.5649 174.183 44.6135 175.233C43.662 176.283 43.0397 177.394 42.7465 178.568C42.4396 179.73 42.4633 180.854 42.8179 181.944C43.1724 183.032 43.8209 184.002 44.7633 184.854C45.7059 185.706 46.7374 186.253 47.858 186.497C48.9787 186.739 50.109 186.658 51.2491 186.248C52.3755 185.828 53.4144 185.092 54.3659 184.041C55.3173 182.992 55.9528 181.879 56.272 180.705C56.5652 179.531 56.5408 178.393 56.1985 177.291C55.8441 176.201 55.1955 175.231 54.2531 174.379Z" fill="#FFFCE3"/>
<path d="M38.4362 150.153L33.9897 157.807L35.1902 159.886L41.8443 156.056L43.4173 158.781L26.7818 168.356L23.4704 162.62C22.7346 161.345 22.337 160.141 22.2779 159.008C22.2096 157.859 22.4262 156.853 22.9279 155.991C23.4203 155.113 24.1293 154.408 25.0549 153.875C26.1399 153.251 27.3132 153 28.5748 153.123C29.8111 153.239 30.9661 153.859 32.0394 154.982L36.5598 146.902L38.4362 150.153ZM33.012 161.14L31.2734 158.129C30.6847 157.109 29.9879 156.491 29.1829 156.275C28.3687 156.044 27.5308 156.176 26.6691 156.671C25.8075 157.168 25.2844 157.808 25.1001 158.593C24.8998 159.389 25.0985 160.303 25.6964 161.339L27.435 164.351L33.012 161.14Z" fill="#FFFCE3"/>
<path d="M15.9191 138.484L21.3771 137.079L19.7232 130.667L22.2114 130.028L23.8652 136.44L29.564 134.974L27.7033 127.761L30.1916 127.121L32.8378 137.379L14.2165 142.169L11.5703 131.91L14.0585 131.27L15.9191 138.484Z" fill="#FFFCE3"/>
</g>
<defs>
<filter id="filter0_d_1_39977" x="-24" y="-20" width="268" height="268" filterUnits="userSpaceOnUse" color-interpolation-filters="sRGB">
<feFlood flood-opacity="0" result="BackgroundImageFix"/>
<feColorMatrix in="SourceAlpha" type="matrix" values="0 0 0 0 0 0 0 0 0 0 0 0 0 0 0 0 0 0 127 0" result="hardAlpha"/>
<feOffset dx="4" dy="-1"/>
<feGaussianBlur stdDeviation="4"/>
<feComposite in2="hardAlpha" operator="out"/>
<feColorMatrix type="matrix" values="0 0 0 0 0.238925 0 0 0 0 0.243652 0 0 0 0 0.241176 0 0 0 0.2 0"/>
<feBlend mode="normal" in2="BackgroundImageFix" result="effect1_dropShadow_1_39977"/>
<feBlend mode="normal" in="SourceGraphic" in2="effect1_dropShadow_1_39977" result="shape"/>
</filter>
</defs>
</svg>
