<svg width="180" height="180" viewBox="0 0 180 180" fill="none" xmlns="http://www.w3.org/2000/svg">
<rect width="180" height="180" rx="90" fill="#168C05"/>
<path d="M180 90C180 40.2944 139.706 0 90 0C40.2944 0 0 40.2944 0 90C0 139.706 40.2944 180 90 180C139.706 180 180 139.706 180 90Z" fill="#168C05"/>
<mask id="mask0_1_6518" style="mask-type:luminance" maskUnits="userSpaceOnUse" x="10" y="10" width="160" height="160">
<path d="M170 10H10V170H170V10Z" fill="white"/>
</mask>
<g mask="url(#mask0_1_6518)">
<path d="M155.396 111.219C155.719 110.274 156.173 109.48 156.758 108.834C157.342 108.194 158.02 107.734 158.793 107.454C159.57 107.182 160.399 107.124 161.282 107.282L160.855 109.64C160.03 109.568 159.308 109.756 158.691 110.204C158.071 110.657 157.629 111.272 157.363 112.049C157.206 112.509 157.129 112.967 157.133 113.423C157.137 113.878 157.232 114.278 157.42 114.624C157.605 114.976 157.897 115.22 158.294 115.357C158.473 115.419 158.646 115.446 158.815 115.437C158.99 115.431 159.157 115.388 159.317 115.31C159.474 115.237 159.632 115.125 159.79 114.973C159.952 114.829 160.11 114.649 160.262 114.434L162.381 111.44C162.562 111.182 162.777 110.909 163.029 110.622C163.283 110.342 163.583 110.096 163.929 109.881C164.278 109.675 164.676 109.541 165.121 109.482C165.571 109.43 166.077 109.502 166.641 109.697C167.466 109.983 168.086 110.43 168.502 111.042C168.921 111.661 169.149 112.374 169.185 113.182C169.219 113.995 169.084 114.837 168.781 115.707C168.473 116.589 168.051 117.326 167.518 117.916C166.99 118.509 166.368 118.941 165.65 119.214C164.933 119.487 164.147 119.583 163.292 119.501L163.685 117.041C164.168 117.101 164.614 117.049 165.023 116.883C165.436 116.725 165.793 116.478 166.093 116.141C166.392 115.81 166.622 115.426 166.785 114.988C166.938 114.559 167.01 114.136 167 113.718C166.994 113.309 166.905 112.947 166.734 112.634C166.559 112.327 166.305 112.116 165.973 112.001C165.658 111.892 165.368 111.899 165.101 112.02C164.84 112.143 164.601 112.325 164.387 112.565C164.177 112.812 163.982 113.069 163.805 113.335L162.374 115.425C162.183 115.713 161.949 116.03 161.671 116.375C161.394 116.72 161.066 117.031 160.686 117.307C160.306 117.582 159.869 117.765 159.374 117.854C158.876 117.95 158.306 117.887 157.665 117.665C157.001 117.435 156.464 117.092 156.054 116.637C155.65 116.19 155.362 115.672 155.191 115.085C155.02 114.498 154.954 113.872 154.997 113.205C155.037 112.544 155.17 111.882 155.396 111.219Z" fill="#FFFCE3"/>
<path d="M151.565 121.168L163.083 128.371L158.458 135.856L156.651 134.725L160.076 129.18L157.237 127.404L154.409 131.983L152.601 130.853L155.429 126.274L152.174 124.237L148.749 129.783L146.941 128.652L151.565 121.168Z" fill="#FFFCE3"/>
<path d="M135.867 140.414L141.328 140.431L141.317 142.455L135.869 142.424L135.867 140.414ZM139.336 136.962C140.299 136.003 141.334 135.392 142.435 135.13C143.543 134.873 144.654 134.939 145.77 135.33C146.883 135.725 147.931 136.423 148.916 137.425C149.9 138.427 150.583 139.489 150.962 140.612C151.338 141.74 151.389 142.857 151.117 143.963C150.85 145.074 150.233 146.11 149.269 147.069C148.304 148.029 147.269 148.637 146.162 148.895C145.055 149.16 143.946 149.096 142.834 148.702C141.718 148.312 140.666 147.615 139.682 146.613C138.698 145.612 138.018 144.547 137.642 143.419C137.262 142.296 137.209 141.177 137.48 140.061C137.753 138.955 138.372 137.922 139.336 136.962ZM140.839 138.492C140.187 139.131 139.791 139.81 139.65 140.529C139.502 141.252 139.584 141.985 139.89 142.728C140.192 143.476 140.692 144.205 141.39 144.914C142.087 145.624 142.801 146.131 143.532 146.434C144.263 146.746 144.988 146.833 145.709 146.694C146.424 146.559 147.109 146.175 147.766 145.54C148.418 144.9 148.814 144.221 148.955 143.503C149.097 142.784 149.017 142.051 148.715 141.303C148.408 140.56 147.906 139.834 147.208 139.124C146.511 138.414 145.797 137.903 145.066 137.591C144.34 137.283 143.619 137.196 142.903 137.331C142.183 137.47 141.495 137.857 140.839 138.492Z" fill="#FFFCE3"/>
<path d="M126.236 147.088C127.17 146.543 128.103 146.254 129.036 146.221C129.962 146.192 130.826 146.407 131.628 146.867C132.424 147.33 133.091 148.028 133.63 148.962L137.895 156.366L135.918 157.542L131.671 150.172C131.416 149.729 131.115 149.375 130.767 149.111C130.412 148.85 130.037 148.671 129.64 148.574C129.246 148.483 128.848 148.471 128.443 148.539C128.04 148.606 127.662 148.743 127.308 148.949C126.945 149.161 126.636 149.425 126.382 149.741C126.127 150.066 125.941 150.422 125.824 150.812C125.71 151.207 125.681 151.622 125.735 152.057C125.791 152.493 125.944 152.929 126.196 153.366L130.443 160.736L128.455 161.896L124.18 154.477C123.641 153.542 123.373 152.61 123.375 151.682C123.372 150.756 123.616 149.895 124.106 149.097C124.592 148.303 125.302 147.633 126.236 147.088Z" fill="#FFFCE3"/>
<path d="M110.522 153.781C111.829 153.415 113.026 153.388 114.117 153.7C115.208 154.018 116.147 154.621 116.932 155.509C117.712 156.399 118.291 157.523 118.665 158.88C119.04 160.238 119.121 161.5 118.909 162.667C118.691 163.836 118.195 164.837 117.422 165.67C116.65 166.509 115.611 167.111 114.304 167.476C112.998 167.841 111.798 167.865 110.707 167.548C109.612 167.237 108.674 166.637 107.894 165.747C107.107 164.859 106.527 163.737 106.152 162.379C105.777 161.021 105.699 159.758 105.917 158.589C106.129 157.422 106.624 156.418 107.402 155.577C108.175 154.744 109.216 154.146 110.522 153.781ZM111.095 155.853C110.216 156.092 109.54 156.491 109.069 157.049C108.591 157.609 108.307 158.288 108.215 159.088C108.117 159.889 108.2 160.77 108.466 161.732C108.731 162.694 109.11 163.486 109.602 164.109C110.089 164.74 110.68 165.171 111.376 165.403C112.066 165.637 112.852 165.636 113.731 165.404C114.611 165.164 115.286 164.766 115.757 164.207C116.228 163.649 116.514 162.97 116.611 162.169C116.703 161.369 116.617 160.489 116.352 159.527C116.085 158.565 115.71 157.769 115.222 157.138C114.737 156.513 114.149 156.084 113.459 155.851C112.763 155.619 111.975 155.62 111.095 155.853Z" fill="#FFFCE3"/>
<path d="M99.3053 156.188L100.392 169.789L98.1296 169.973L97.043 156.371L99.3053 156.188Z" fill="#FFFCE3"/>
<path d="M92.0964 156.767L86.4778 169.911L83.1707 169.575L80.2812 155.566L82.6046 155.802L85.2411 168.376L84.7349 168.324L89.7724 156.531L92.0964 156.767ZM89.4303 159.468L89.2165 161.59L82.1336 160.869L82.3465 158.747L89.4303 159.468Z" fill="#FFFCE3"/>
<path d="M63.9702 149.563C64.7605 149.95 65.4354 150.453 65.9951 151.071C66.5464 151.692 66.9528 152.404 67.2138 153.206C67.4692 154.007 67.5529 154.873 67.4646 155.806C67.3731 156.745 67.0806 157.726 66.5856 158.748C65.937 160.089 65.1352 161.112 64.1796 161.817C63.2211 162.528 62.1878 162.925 61.0796 163.007C59.9686 163.095 58.8712 162.874 57.7873 162.343C56.2857 161.608 55.2678 160.674 54.7336 159.541C54.191 158.41 54.0709 157.136 54.3732 155.717L56.617 156.405C56.4966 157.246 56.5945 158.011 56.9107 158.699C57.2241 159.394 57.7871 159.94 58.6002 160.338C59.4132 160.75 60.1799 160.905 60.9005 160.801C61.621 160.698 62.2817 160.378 62.8826 159.843C63.4778 159.305 63.9925 158.588 64.4267 157.691C64.8608 156.793 65.1031 155.946 65.1537 155.148C65.2015 154.357 65.0437 153.644 64.6805 153.009C64.3115 152.372 63.7205 151.847 62.9075 151.434C62.295 151.127 61.7022 150.974 61.1295 150.975C60.554 150.98 60.0068 151.145 59.4877 151.467C58.9662 151.794 58.4842 152.286 58.0419 152.94L60.1926 153.994L59.4136 155.604L55.0951 153.489C55.1279 153.392 55.1839 153.255 55.2635 153.076C55.343 152.897 55.391 152.791 55.4076 152.756C55.9681 151.598 56.6955 150.679 57.5897 149.999C58.4754 149.323 59.4653 148.937 60.5593 148.841C61.6534 148.744 62.7905 148.984 63.9702 149.563Z" fill="#FFFCE3"/>
<path d="M54.7078 144.759L42.7195 152.453L40.1719 150.304L45.6071 137.082L47.3969 138.592L42.554 150.483L42.1642 150.154L52.9181 143.249L54.7078 144.759ZM50.9943 145.485L49.6331 147.119L44.1769 142.517L45.5382 140.882L50.9943 145.485Z" fill="#FFFCE3"/>
<path d="M42.3583 133.698L31.273 141.558L30.0959 139.877L35.2464 130.452L24.6929 132.162L23.5156 130.481L34.601 122.621L35.8216 124.364L28.7161 129.402L38.2192 127.787L38.7401 128.531L34.0269 136.986L41.1323 131.947L42.3583 133.698Z" fill="#FFFCE3"/>
<path d="M32.2684 117.59L19.5974 122.453L16.4766 114.219L18.4652 113.455L20.7773 119.556L23.9011 118.357L21.9916 113.319L23.9803 112.556L25.8898 117.594L29.471 116.219L27.1588 110.119L29.1475 109.355L32.2684 117.59Z" fill="#FFFCE3"/>
<path d="M23.9299 85.5892C23.8354 86.6276 23.4879 87.4678 22.8872 88.1104C22.2871 88.7463 21.518 89.1606 20.5799 89.3538L20.2499 87.0583C20.6376 87.024 20.9841 86.8533 21.2895 86.5449C21.595 86.2371 21.766 85.8817 21.8026 85.4791C21.8267 85.2148 21.7834 84.9283 21.6728 84.6203C21.5558 84.3113 21.3477 84.07 21.0483 83.8965C20.8562 83.7899 20.6233 83.7179 20.3493 83.6798C20.0696 83.6352 19.7454 83.5957 19.3765 83.5613L10.2891 82.7245L10.4986 80.4219L19.5861 81.2587C20.0049 81.2978 20.3735 81.3349 20.6918 81.3706C21.0045 81.3991 21.2985 81.4582 21.5742 81.5467C21.8441 81.6287 22.118 81.7712 22.3959 81.9745C22.9998 82.4046 23.4245 82.9325 23.6703 83.5576C23.9098 84.1822 23.9963 84.8597 23.9299 85.5892Z" fill="#FFFCE3"/>
<path d="M27.0241 69.9334C26.6022 71.2302 25.9604 72.2485 25.0987 72.9885C24.231 73.7265 23.212 74.1782 22.0415 74.3442C20.8729 74.5049 19.6234 74.3658 18.2929 73.9274C16.9623 73.4891 15.8729 72.8574 15.0247 72.033C14.1785 71.2025 13.6253 70.2326 13.3652 69.1232C13.0992 68.0119 13.1772 66.8078 13.5991 65.511C14.021 64.2141 14.6658 63.1967 15.5334 62.4588C16.3971 61.7129 17.4131 61.26 18.5817 61.0998C19.7522 60.9336 21.0027 61.0697 22.3333 61.508C23.6639 61.9463 24.7522 62.5808 25.5985 63.4112C26.4467 64.2357 27.0028 65.2066 27.267 66.324C27.5269 67.4334 27.446 68.6365 27.0241 69.9334ZM24.9925 69.2641C25.2817 68.3955 25.3261 67.6091 25.1258 66.905C24.9274 66.1948 24.5231 65.5797 23.9127 65.0596C23.3044 64.5334 22.5289 64.1151 21.5862 63.8045C20.6435 63.494 19.7781 63.3718 18.9903 63.438C18.1984 63.4962 17.5138 63.7527 16.9365 64.2073C16.3612 64.6559 15.9259 65.3136 15.6307 66.1802C15.3415 67.0488 15.2971 67.8352 15.4974 68.5393C15.6977 69.2434 16.1021 69.8586 16.7104 70.3847C17.3207 70.9048 18.0972 71.3202 19.04 71.6307C19.9827 71.9413 20.85 72.0674 21.6418 72.0092C22.4278 71.949 23.1084 71.6946 23.6838 71.246C24.2611 70.7914 24.6973 70.1308 24.9925 69.2641Z" fill="#FFFCE3"/>
<path d="M31.2525 59.2024L19.3984 52.5744L20.5008 50.5781L32.3548 57.2061L31.2525 59.2024Z" fill="#FFFCE3"/>
<path d="M35.3115 52.0922L24.9219 43.3224L26.3986 41.5509L37.7649 42.8826L30.4416 36.7011L31.9182 34.9297L42.308 43.6994L40.8312 45.4709L29.4651 44.1392L36.7883 50.3207L35.3115 52.0922Z" fill="#FFFCE3"/>
<path d="M57.5628 32.5573C56.3798 33.2244 55.2223 33.5367 54.0904 33.4942C52.9553 33.4463 51.9011 33.0848 50.9279 32.4097C49.9601 31.7316 49.134 30.778 48.4496 29.5491C47.7652 28.3201 47.388 27.1133 47.3186 25.9287C47.2544 24.7409 47.4998 23.6502 48.0548 22.6566C48.6066 21.6574 49.4741 20.8242 50.6571 20.1572C52.0209 19.3882 53.3492 19.0918 54.642 19.268C55.9317 19.4387 57.0838 20.002 58.0984 20.9579L56.4106 22.6375C55.7478 21.9902 55.0186 21.6048 54.2229 21.4813C53.4242 21.3523 52.584 21.5365 51.7022 22.0337C50.908 22.4816 50.3451 23.0343 50.0132 23.6921C49.687 24.3468 49.5707 25.075 49.6646 25.8766C49.7608 26.6697 50.0486 27.5032 50.528 28.377C51.013 29.2478 51.568 29.9342 52.193 30.4363C52.8205 30.9298 53.4996 31.2058 54.2304 31.2645C54.9611 31.3231 55.7236 31.1286 56.5178 30.6807C57.3996 30.1835 57.9943 29.5584 58.3018 28.8057C58.6095 28.0528 58.6636 27.2259 58.4638 26.3245L60.7687 25.7526C61.0494 27.1224 60.9268 28.4081 60.4013 29.6097C59.8728 30.8057 58.9265 31.7882 57.5628 32.5573Z" fill="#FFFCE3"/>
<path d="M73.1335 26.2328C71.8217 26.5787 70.6234 26.5879 69.5385 26.2602C68.452 25.9263 67.5222 25.3095 66.7491 24.4098C65.982 23.5083 65.421 22.3763 65.0659 21.0135C64.711 19.6507 64.6479 18.3873 64.8768 17.2232C65.1119 16.0574 65.6222 15.064 66.4078 14.2428C67.1918 13.4156 68.2396 12.829 69.5514 12.4829C70.8632 12.1369 72.0623 12.1308 73.1488 12.4646C74.2398 12.7908 75.1689 13.4045 75.9359 14.3059C76.7091 15.2057 77.2731 16.337 77.6281 17.6997C77.9832 19.0626 78.0431 20.3268 77.8081 21.4925C77.5792 22.6566 77.0697 23.6531 76.2797 24.4819C75.4941 25.3031 74.4453 25.8867 73.1335 26.2328ZM72.5914 24.1519C73.4736 23.9257 74.1545 23.5372 74.634 22.9861C75.1196 22.4335 75.4143 21.7582 75.5179 20.9602C75.6276 20.1606 75.5567 19.2781 75.3052 18.3125C75.0536 17.347 74.6867 16.549 74.2044 15.9187C73.7267 15.2805 73.1415 14.8406 72.449 14.5988C71.7625 14.3553 70.9773 14.3437 70.0935 14.5637C69.2113 14.7899 68.5305 15.1785 68.051 15.7295C67.5714 16.2805 67.2767 16.9558 67.167 17.7554C67.0635 18.5534 67.1374 19.4352 67.3889 20.4007C67.6405 21.3662 68.0052 22.1681 68.4829 22.8062C68.9591 23.4382 69.5404 23.8759 70.2269 24.1193C70.9196 24.3611 71.7076 24.372 72.5914 24.1519Z" fill="#FFFCE3"/>
<path d="M84.0117 23.6877L84.1841 10.043L86.2279 10.0691L90.7948 19.7941L95.6065 10.1889L97.6503 10.2151L97.4778 23.8598L95.3593 23.8328L95.4693 15.0868L91.197 23.7796L90.2931 23.768L86.2503 14.969L86.1403 23.7149L84.0117 23.6877Z" fill="#FFFCE3"/>
<path d="M102.879 24.699L106.84 11.6484L108.795 12.2492L110.475 22.872L117.766 15.0065L119.72 15.6072L115.759 28.6578L113.732 28.0349L116.271 19.6698L109.751 26.8113L108.886 26.5456L107.454 16.9596L104.914 25.3247L102.879 24.699Z" fill="#FFFCE3"/>
<path d="M125.145 34.2686C124.233 33.6864 123.548 32.9868 123.089 32.1699C122.635 31.3564 122.426 30.4858 122.461 29.5579C122.502 28.6333 122.809 27.715 123.384 26.8029L127.942 19.5781L129.891 20.8012L125.355 27.9939C125.081 28.426 124.909 28.8584 124.837 29.2912C124.77 29.7273 124.786 30.145 124.884 30.5441C124.985 30.9379 125.158 31.2994 125.404 31.6286C125.65 31.9577 125.945 32.2324 126.29 32.4525C126.646 32.6792 127.02 32.8329 127.416 32.9133C127.819 32.9918 128.221 32.9933 128.617 32.9177C129.019 32.8368 129.397 32.6714 129.756 32.4214C130.115 32.1715 130.428 31.8331 130.697 31.4064L135.235 24.2137L137.175 25.4527L132.607 32.6934C132.032 33.6056 131.334 34.275 130.515 34.7019C129.701 35.1322 128.829 35.3123 127.899 35.2422C126.975 35.1755 126.056 34.8509 125.145 34.2686Z" fill="#FFFCE3"/>
<path d="M134.594 40.7905L144.509 31.4805L146.076 33.171L143.38 44.3612L150.368 37.7989L151.936 39.4894L142.021 48.7995L140.454 47.109L143.15 35.9187L136.162 42.481L134.594 40.7905Z" fill="#FFFCE3"/>
<path d="M145.602 54.1085L157.091 46.8594L158.296 48.7942L146.807 56.0433L145.602 54.1085Z" fill="#FFFCE3"/>
<path d="M150.992 64.2281L161.571 59.867L159.907 55.7807L161.877 54.9688L166.065 65.2547L164.095 66.0665L162.432 61.9803L151.853 66.3414L150.992 64.2281Z" fill="#FFFCE3"/>
<path d="M155.195 77.9893L160.672 77.0507L167.79 71.1211L168.234 73.7461L163.428 77.7513L169.278 79.921L169.723 82.5464L161.058 79.3301L155.581 80.2687L155.195 77.9893Z" fill="#FFFCE3"/>
</g>
<path fill-rule="evenodd" clip-rule="evenodd" d="M80.8333 82.6667C79.8208 82.6667 79 81.8459 79 80.8333C79 79.8208 79.8208 79 80.8333 79H99.1667C100.179 79 101 79.8208 101 80.8333V99.1667C101 100.179 100.179 101 99.1667 101C98.1541 101 97.3333 100.179 97.3333 99.1667V85.2594L82.1297 100.463C81.4137 101.179 80.2529 101.179 79.537 100.463C78.821 99.7471 78.821 98.5863 79.537 97.8703L94.7406 82.6667H80.8333Z" fill="#FFFCE3"/>
</svg>
